# xmcd
#
# Track frame offsets:
#	150
#	14121
#	27069
#	41808
#	53779
#	67148
#	79475
#	90980
#	103822
#	116002
#	128498
#	141110
#	153062
#	165594
#	178480
#	191056
#	204237
#	216310
#	229198
#	242526
#	254695
#	267785
#	280346
#	294853
#	309148
#	323640
#
# Disc length: 4518 seconds
#
# Revision: 1
# Processed by: cddbd v1.5.2PL0 Copyright (c) Steve Scherf et al.
# Submitted via: audiograbber 1.83.01
#
DISCID=7711a41a
DTITLE=Sonny Boy Williamson (I) - The Original Sonny Boy Williamson 1941-1942, 
DTITLE=Cd B
DYEAR=2008
DGENRE=Blues
TTITLE0=SONNY BOY WILLIAMSON - Million Years Blues
TTITLE1=SONNY BOY WILLIAMSON - Shady Grove Blues
TTITLE2=SONNY BOY WILLIAMSON - Sloppy Drunk Blues
TTITLE3=SONNY BOY WILLIAMSON - She Was a Dreamer
TTITLE4=SONNY BOY WILLIAMSON - You Got to Step Back
TTITLE5=SONNY BOY WILLIAMSON - Ground Hog Blues
TTITLE6=SONNY BOY WILLIAMSON - Black Panther Blues
TTITLE7=S0NNY BOY WILLIAMSON - Broken Heart Blues
TTITLE8=SONNY BOY WILLIAMSON - She Don't Love Me That Way
TTITLE9=SONNY BOY WILLIAMSON - My Black Name Blues
TTITLE10=SONNY BOY WILLIAMSON - I Have Got to Go
TTITLE11=YANK RACHELL - Yellow Yam Blues
TTITLE12=YANK RACHELL - Tappin' That Thing
TTITLE13=YANK RACHELL - Rainy Day Blues
TTITLE14=YANK RACHELL - Peach Tree Blues
TTITLE15=YANK RACHELL - She Loves Who She Please
TTITLE16=YANK RACHELL - Bye Bye Blues
TTITLE17=YANK RACHELL - Loudella Blues
TTITLE18=YANK RACHELL - Katy Lee Blues
TTITLE19=BIG JOE WILLIAMS - Throw a Boogie Woogie
TTITLE20=BIG JOE WILLIAMS - North Wind Blues
TTITLE21=BIG JOE WILLIAMS - Please Don't Go
TTITLE22=BIG JOE WILLIAMS - Highway 49
TTITLE23=BIG JOE WILLIAMS - Someday Baby
TTITLE24=BIG JOE WILLIAMS - Break 'em on Down
TTITLE25=BIG JOE WILLIAMS - Love Me, Baby
EXTD=
EXTT0=
EXTT1=
EXTT2=
EXTT3=
EXTT4=
EXTT5=
EXTT6=
EXTT7=
EXTT8=
EXTT9=
EXTT10=
EXTT11=
EXTT12=
EXTT13=
EXTT14=
EXTT15=
EXTT16=
EXTT17=
EXTT18=
EXTT19=
EXTT20=
EXTT21=
EXTT22=
EXTT23=
EXTT24=
EXTT25=
PLAYORDER=
